<svg height="80" width="80" viewBox='0 0 80 80' xmlns="http://www.w3.org/2000/svg"><g fill="#dbc5b2"><path d="m56.9 15c-1-8.4-8.2-15-16.9-15s-15.9 6.6-16.9 15h-23.1v65h80v-65zm-16.9-11c6.5 0 11.9 4.8 12.8 11h-25.6c.9-6.2 6.3-11 12.8-11zm36 72h-72v-57h19v4h4v-4h26v4h4v-4h19z"/><path d="m42.3 46.2c-2.6-1.9-3.4-2.6-3.7-2.8-.6-.6-1.1-1.2-1.3-1.8-.2-.5-.3-1.1-.3-1.6 0-.9.3-1.6.9-2.2s1.5-.9 2.5-.9c.8 0 1.6.2 2.2.6.7.4 1.6 1.3 2.6 2.7l.3.4 3.1-2.4-.3-.4c-1.4-1.8-2.7-3.1-3.9-3.8-2.4-1.4-5.5-1.4-7.8-.1-1.2.6-2.1 1.5-2.7 2.6s-1 2.3-1 3.6c0 1.7.5 3.2 1.6 4.7.6.9 2.1 2.2 4.6 4 2.3 1.7 4 3.3 4.8 4.5.6.8.9 1.7.9 2.5 0 .7-.2 1.5-.6 2.1-.4.7-1 1.2-1.7 1.6-.8.4-1.6.6-2.5.6-2 0-3.9-1.5-5.5-4.5l-.2-.5-3.3 2 .2.4c1.2 2.2 2.6 3.9 4.1 4.8 1.5 1 3.2 1.5 5 1.5 2.4 0 4.5-.8 6.1-2.4 1.7-1.6 2.5-3.6 2.5-5.8 0-1.5-.5-3.1-1.5-4.6-.8-1.2-2.6-2.9-5.1-4.8z"/></g></svg>