<svg height="80" width="80" viewBox='0 0 80 80' xmlns="http://www.w3.org/2000/svg"><g fill="#dbc5b2"><path d="m42.5 25.8c0-3.2-2.6-5.8-5.8-5.8s-5.8 2.6-5.8 5.8 2.6 5.8 5.8 5.8c3.2-.1 5.8-2.7 5.8-5.8zm-7.5 0c0-1 .8-1.8 1.8-1.8s1.8.8 1.8 1.8-.8 1.8-1.8 1.8-1.8-.9-1.8-1.8zm18.2 10.7c-3.2 0-5.8 2.6-5.8 5.8s2.6 5.8 5.8 5.8 5.8-2.6 5.8-5.8-2.6-5.8-5.8-5.8zm0 7.5c-1 0-1.8-.8-1.8-1.8s.8-1.8 1.8-1.8 1.8.8 1.8 1.8-.8 1.8-1.8 1.8zm-20.292-.737 21.426-21.425 2.828 2.828-21.425 21.426zm-1.408 19.737c-4.7 0-8.5 3.8-8.5 8.5s3.8 8.5 8.5 8.5 8.5-3.8 8.5-8.5-3.8-8.5-8.5-8.5zm0 13c-2.5 0-4.5-2-4.5-4.5s2-4.5 4.5-4.5 4.5 2 4.5 4.5-2 4.5-4.5 4.5zm27-13c-4.7 0-8.5 3.8-8.5 8.5s3.8 8.5 8.5 8.5 8.5-3.8 8.5-8.5-3.8-8.5-8.5-8.5zm0 13c-2.5 0-4.5-2-4.5-4.5s2-4.5 4.5-4.5 4.5 2 4.5 4.5-2 4.5-4.5 4.5z"/><path d="m12.4 9-1.8-9h-10.6v4h7.4l11 55h53.4l7.6-50h-67zm55.9 46h-46.7l-8.4-42h61.4z"/></g></svg>