<svg height="457" width="707" xmlns="http://www.w3.org/2000/svg"><g fill="none" fill-rule="evenodd"><path d="m107.474 70.545c.99.372 2.476 0 2.724-1.114 11.886-8.423 25.011-13.13 39.374-15.607s28.973-2.725 43.46-2.849c2.229 0 4.829-.124 6.19-1.982 1.24-1.61.991-3.963-.247-5.574-1.238-1.61-3.095-2.6-4.952-3.22-5.077-1.61-13.744-1.239-18.45 1.115-1.485.743-3.961-.62-4.704-1.982-1.115-2.354-2.353-4.707-3.467-6.937-.99-2.105-2.105-4.21-3.839-5.697-2.105-1.858-4.828-2.725-7.552-3.345-13.62-3.22-28.355-1.61-41.108 4.212-2.848 1.362-5.696 2.849-7.924 5.078-2.972 2.973-4.83 7.06-5.696 11.272-1.857 8.299-.371 17.217 4.21 24.4.247.868.99 1.859 1.98 2.23z" fill="#dbc5b2" fill-rule="nonzero"/><path d="m579.468 301.303c-.496.124-.99.124-1.486.248-.495.124-.867.124-1.362.248.99-.248 1.98-.372 2.848-.496zm-47.918.372c-.495-.124-.99-.124-1.362-.248-.495 0-.99-.124-1.362-.124.867.124 1.734.248 2.724.372zm1.857-50.041c-.495-.124-.99-.124-1.362-.248-.495 0-.99-.124-1.362-.124.743.124 1.734.248 2.724.372zm50.518-.372c-.371 0-.867.124-1.238.124-.495.124-1.114.124-1.61.248.99-.124 1.981-.248 2.848-.371zm40.117 37.531c-.371.124-.867.372-1.238.496-.495.247-.867.371-1.362.619z"/><path d="m579.468 301.303c-.496.124-.99.124-1.486.248-.495.124-.867.124-1.362.248.99-.248 1.98-.372 2.848-.496zm-47.918.372c-.495-.124-.99-.124-1.362-.248-.495 0-.99-.124-1.362-.124.867.124 1.734.248 2.724.372z"/><g fill-rule="nonzero"><path d="m394.112 67.573c.99 1.238 2.724-.496 1.734-1.734-4.086-5.203-4.086-13.254 0-18.332 4.086-4.955 11.391-6.689 17.21-4.212.62.248 1.486.248 1.734-.495 2.6-5.945 6.067-11.89 11.639-15.483 4.705-2.973 10.648-3.468 15.477-.743 2.105 1.238 3.962 3.096 4.705 5.574.867 2.849.371 5.821 1.486 8.67 1.362 3.344 4.333 4.088 7.553 4.46 3.219.37 6.067 1.61 8.42 3.839 5.324 5.326 4.828 13.997-.62 18.951-1.238 1.115.62 2.849 1.734 1.734 5.076-4.707 6.686-12.51 3.467-18.703-1.486-2.973-4.086-5.45-7.058-6.936-1.61-.744-3.22-1.24-4.953-1.487-1.733-.248-3.962-.124-5.324-1.486-2.105-2.23-1.486-6.441-2.105-9.166s-2.352-5.079-4.705-6.689c-4.705-3.468-11.267-3.963-16.591-1.734-7.182 3.097-11.763 10.033-14.982 16.97-5.077-1.735-10.896-1.115-15.478 1.981-5.2 3.468-7.924 9.414-7.305 15.607.62 3.468 1.857 6.689 3.962 9.414zm-386.064 54.376c-4.086-5.202-4.086-13.254 0-18.332 4.086-4.955 11.391-6.689 17.21-4.211.62.247 1.487.247 1.734-.496 2.6-5.945 6.067-11.89 11.64-15.483 4.704-2.972 10.648-3.468 15.476-.743 2.105 1.239 3.963 3.097 4.705 5.574.867 2.849.372 5.822 1.486 8.67 1.362 3.345 4.334 4.088 7.553 4.46 3.22.371 6.067 1.61 8.42 3.84 5.324 5.325 4.829 13.996-.62 18.95-1.237 1.115.62 2.85 1.734 1.734 5.077-4.706 6.686-12.51 3.467-18.703-1.486-2.973-4.086-5.45-7.058-6.936-1.61-.743-3.219-1.239-4.952-1.487-1.734-.247-3.962-.124-5.324-1.486-2.105-2.23-1.486-6.44-2.105-9.166-.62-2.725-2.353-5.078-4.705-6.689-4.705-3.468-11.268-3.963-16.592-1.734-7.181 3.097-11.763 10.033-14.982 16.97-5.077-1.734-10.896-1.115-15.477 1.981-5.2 3.469-7.925 9.414-7.305 15.607.371 3.468 1.61 6.689 3.714 9.414 1.238 1.239 2.972-.496 1.981-1.734zm498.367 68.125c.743.495 1.486 1.115 2.105 1.61-.371-.248-.62-.495-.99-.743-.372-.372-.743-.62-1.115-.867zm-5.2-5.574c-.248-.372-.62-.743-.867-.99.495.742 1.114 1.485 1.61 2.105z" fill="#dbc5b2"/><path d="m506.415 214.847c5.2 2.477 10.648 4.459 16.344 5.697 6.562 1.487 13.372 2.23 20.182 2.478 12.01.371 24.145-.867 36.031-2.23 12.754-1.486 25.507-3.592 38.136-6.193 9.163-1.858 18.201-4.088 27.24-6.565.372 1.239.62 2.477.867 3.716 1.238 5.945 1.362 12.51 5.2 17.34 4.581 5.822 13.001 6.937 20.306 5.822 18.202-2.972 33.555-19.075 35.412-37.53 1.981-18.332-9.534-37.407-26.744-44.096-13.373-5.202-30.212-4.335-39.622-15.235-7.43-8.794-6.81-21.676-6.315-33.195.495-11.52-.371-24.773-9.41-31.833-7.553-5.946-18.82-5.574-26.25-11.643-7.305-5.822-9.162-16.103-14.734-23.535-5.448-7.184-14.486-11.519-23.401-11.147-9.039.371-17.706 5.326-22.535 12.882-1.734 2.725-3.467 6.069-6.686 6.688-2.105.372-4.21-.62-6.439-.99-4.581-.868-9.41 1.733-12.258 5.45-2.848 3.715-4.086 8.422-4.705 13.129-.495 3.84-.371 7.927 1.115 11.52 1.61 3.591 5.076 6.44 8.914 6.44 1.486-8.547 6.315-16.598 13.249-21.8l2.848-.372c1.61 9.91 8.172 18.828 16.963 23.287 3.219 1.61 6.686 2.725 9.534 4.954 4.21 3.345 6.067 8.67 7.8 13.75 3.591 10.652 7.306 21.428 13.249 30.965 9.162 14.616 12.63 25.144 28.602 31.833 9.905 4.088 19.191 13.625 25.878 24.154-12.506 3.344-25.135 6.069-37.889 8.298-4.705.867-9.41 1.487-14.239 2.23-8.172 1.115-16.344 1.982-24.516 2.477-8.172.496-16.467.62-24.64-.371-5.447-.867-10.772-2.23-15.848-4.212a69.57 69.57 0 0 1 -7.924-4.211c-2.848 5.078-5.077 10.528-7.306 15.854l-1.485 3.716c1.733.867 3.343 1.61 5.076 2.478zm35.907 58.835c22.659 1.734 45.441-.62 67.481-6.07 12.134-2.972 24.144-6.44 36.402-8.298-.619.124-1.114.124-1.733.247.99-.123 1.857-.247 2.848-.371-.372 0-.743.124-1.115.124 1.858-.248 3.591-.372 5.448-.496-.99-6.936-2.104-13.996-3.095-20.933-5.077.496-10.277 1.239-15.23 2.23-11.267 2.23-22.287 5.45-33.554 8.05-5.572 1.24-11.268 2.354-16.963 3.221a204.771 204.771 0 0 1 -50.766 0c-13-1.858-25.878-4.954-38.26-9.29v1.363c0 7.556 1.61 14.74 3.715 22.048 14.487 4.335 29.593 6.936 44.822 8.175zm1.362 69.24a407.495 407.495 0 0 1 -17.706-1.858c.496.123.99.123 1.362.247-.99-.123-1.857-.247-2.848-.371.496.124.991.124 1.362.124-7.429-.991-14.858-2.354-22.163-3.84-.743 7.06-1.857 13.996-2.972 20.933 14.116 2.849 28.479 4.707 42.965 5.821 13.125.991 26.373 1.363 39.498.867a82.718 82.718 0 0 0 11.639-19.322c-.371-.743-.62-1.487-.867-2.354-16.715 1.363-33.678 1.115-50.27-.247zm114.284-30.595h1.238c-.247-3.84-.866-7.68-1.362-11.395-.495-3.22-.99-6.441-1.486-9.785-12.134.123-24.392.371-36.526.495-2.476 0-4.952.124-7.305.124.124.371.248.867.371 1.239-11.267 3.963-23.03 6.688-34.792 8.422.495-.124.99-.124 1.485-.247-.99.123-1.857.247-2.847.371.495 0 .866-.124 1.362-.248a193.839 193.839 0 0 1 -47.918 0c.495.124.99.124 1.362.248-.99-.124-1.857-.248-2.848-.371.496.123.99.123 1.362.123-8.667-1.238-17.334-3.096-25.754-5.573.867 7.308.99 14.74.743 22.171 13.62 3.468 27.735 5.45 41.85 5.946 20.43.743 41.232-1.734 60.919-7.184.371-.124.743-.248 1.114-.248 1.115-7.184 2.724-15.235 4.21-22.172.62 2.354 1.238 4.83 1.981 7.184.99 3.716 1.981 7.68 1.238 11.396 13.868-.124 27.736-.248 41.603-.496z" fill="#dbc5b2"/><path d="m623.794 340.197c.867.371 1.734.743 2.477 1.114-.372-.123-.867-.371-1.238-.495 4.952 2.23 9.534 4.954 13.867 8.051-.247-.248-.619-.495-.867-.743.743.495 1.486 1.115 2.105 1.61-.371-.371-.866-.62-1.238-.99.62.495 1.115.866 1.61 1.362 1.362-1.115 2.724-2.23 4.086-3.469.371-.247.619-.619.99-.867l.124-.123.867-.867a41.214 41.214 0 0 0 4.457-4.831c.248-.372.496-.62.743-.991 1.115-1.363 1.981-2.849 2.848-4.335-2.724-2.354-5.696-4.583-8.667-6.565-8.172-5.326-17.459-9.29-26.993-11.395-1.238-.248-2.476-.496-3.838-.744-2.352 4.831-7.429 7.928-12.258 10.529l2.848 2.725c-3.59.99-7.058 2.725-9.534 5.45 1.486.867 3.22 1.238 5.077 1.238 2.6 0 5.2.124 7.924.496-.495-.124-.867-.124-1.362-.248.99.124 1.857.248 2.848.372-.496-.124-.99-.124-1.486-.124 5.324.867 10.648 2.353 15.725 4.335-.248-.124-.62-.248-1.115-.495zm-460.107-32.7c-15.725-4.955-30.583-14.12-39.622-27.87-3.095-4.83-5.571-10.157-7.924-15.359-.619-1.362-4.581-3.963-3.714-5.326.743-1.115 5.448-.495 6.81-.743 13.991-2.601 28.85-9.538 40.488-17.589 4.829 7.06 3.22 17.837 7.43 25.145 3.59 6.317 10.276 10.404 17.21 12.634 5.324 1.734 10.896 2.353 16.468 2.725-2.353-17.341-5.572-34.682-9.658-51.651-5.324-22.048-12.258-44.344-26.002-62.304-8.296-11.89-20.182-21.304-33.926-25.268-3.715-2.106-7.924-3.592-11.763-5.45-3.838-1.858-7.553-4.583-9.534-8.175a558.093 558.093 0 0 0 -31.45 37.034c.372 0-12.01 17.837-7.924 44.963 2.6 17.34 6.686 34.434 12.258 51.031 5.572 16.598 11.268 33.444 13.125 50.785 1.857 17.464-.372 35.92-9.906 50.66-1.98 3.22-4.457 6.44-4.457 10.28.124 7.185 8.42 10.9 15.477 12.635 30.83 7.184 63.147 8.05 94.35 2.477 3.838-.743 8.048-1.61 10.648-4.46 3.095-3.344 3.467-8.422 3.714-13.005.62-18.827.124-37.778-1.362-56.482-13.867-.99-27.611-2.477-40.736-6.688z" fill="#dbc5b2"/><path d="m82.587 366.084c-8.792-22.915-23.03-43.476-41.232-59.95-5.076-4.583-10.524-8.918-16.22-12.758-.62-.371-1.362-.124-1.733.496-10.773 18.455-19.687 38.521-21.916 59.95-2.229 22.047 3.343 43.971 11.391 64.409 4.581 11.643 9.905 23.038 15.353 34.434.743 1.486 2.848.248 2.23-1.239-9.411-19.694-18.821-39.76-23.774-61.188-2.352-10.405-3.59-21.181-2.971-31.957.619-10.653 2.971-21.057 6.562-31.09 3.838-10.776 8.915-21.057 14.734-30.966 19.316 13.501 35.412 31.461 46.803 52.147a164.364 164.364 0 0 1 8.544 18.331c.371 1.61 2.848.991 2.229-.619z" fill="#dbc5b2"/><path d="m69.09 424.92c-1.98 3.84-4.952 7.183-8.543 9.785-3.59-12.51-7.182-25.145-10.525-37.655 4.83-11.89 11.392-23.039 19.316-33.195.99-1.24-.743-3.097-1.733-1.735-7.553 9.538-13.744 19.942-18.573 31.09-.124-.495-.248-.867-.372-1.362-3.095-11.52-6.067-23.163-8.914-34.682.247-.124.371-.372.495-.743 3.22-9.538 6.315-18.951 9.534-28.489.495-1.486-1.981-2.23-2.477-.62-2.847 8.547-5.695 17.218-8.543 25.764-1.362-5.821-2.848-11.643-4.21-17.464-2.476-10.653-4.829-21.305-7.181-31.957-.372-1.61-2.724-.867-2.477.62 4.086 18.95 8.42 37.778 13.125 56.481l4.086 16.35c-11.763-4.335-22.411-11.272-31.202-20.19-1.114-1.115-2.972.62-1.733 1.734 9.286 9.538 20.677 16.722 33.183 21.181.124 0 .371.124.495.124 1.486 5.698 2.972 11.395 4.457 16.97-.123.37-.371.742-.495 1.238-.371.99.372 1.486 1.238 1.486 1.61 5.698 3.096 11.52 4.705 17.217.867 2.973 1.61 5.822 2.477 8.795-13.744-5.203-26.126-13.625-35.907-24.65-1.115-1.238-2.848.62-1.734 1.735 10.4 11.767 23.773 20.685 38.507 25.887 1.858 6.565 3.839 13.13 5.696 19.695.495 1.61 2.848.867 2.476-.62-.99-3.468-1.98-6.936-3.095-10.404 4.21-2.725 7.553-6.565 9.905-11.024.991-1.487-1.238-2.849-1.98-1.363zm160.716 10.156c.619-6.44 1.486-12.882 2.6-19.199a82.714 82.714 0 0 0 29.345-6.936c1.486-.62.248-2.849-1.238-2.23-8.667 3.84-18.078 6.07-27.612 6.565 1.239-6.565 2.724-13.253 4.582-19.694.619-.248 1.114-.991.619-1.734 0-.124-.124-.124-.124-.248a237.308 237.308 0 0 1 5.943-18.084c6.439-1.858 12.877-3.84 19.44-5.698 1.61-.495.866-2.849-.62-2.477-5.819 1.734-11.762 3.468-17.582 5.202.496-1.362.99-2.601 1.61-3.963 3.095-7.556 6.686-14.988 10.525-22.296.742-1.486-1.362-2.725-2.23-1.239-4.952 9.166-9.286 18.704-13 28.49-.372.247-.495.742-.495 1.114a192.057 192.057 0 0 0 -5.2 15.607l-8.544-16.35c-.743-1.487-2.972-.124-2.229 1.238 3.22 6.193 6.562 12.387 9.782 18.58a232.648 232.648 0 0 0 -7.058 34.434c-.247 1.858-.495 3.716-.619 5.698-4.705-6.441-9.286-12.882-13.991-19.323-.99-1.363-3.096 0-2.23 1.239 5.325 7.308 10.525 14.492 15.85 21.8-.496 5.202-.743 10.28-.867 15.483 0 1.61 2.476 1.61 2.476 0 .124-4.955.372-9.91.867-14.864.248-.124.371-.62 0-1.115z" fill="#dbc5b2"/><path d="m313.012 350.106c-.372-.248-.743-.496-1.239-.372-14.734 5.45-26.744 17.341-32.688 31.833-.247.62-.495 1.115-.619 1.734-.371-7.556-1.362-14.987-2.724-22.42-1.857-10.528-4.333-20.932-6.933-31.213-.124-.62-.867-1.115-1.61-.867-21.792 7.184-40.612 22.296-52.623 41.742a97.544 97.544 0 0 0 -8.42 17.341c-.618 1.486 1.858 2.23 2.477.62 7.677-20.81 22.906-38.522 42.098-49.67 5.077-2.973 10.4-5.326 15.973-7.308 4.333 17.465 8.543 35.054 9.286 53.014.124 2.353.124 4.583.124 6.936-.124.867-.372 1.858-.495 2.725-.124.496.123.867.371 1.115-.495 12.015-2.972 23.906-8.048 34.806-3.59 7.68-8.42 14.615-14.61 20.437-1.239 1.115.618 2.849 1.733 1.734 7.181-6.688 12.505-14.987 16.22-23.906a39.535 39.535 0 0 0 6.438 19.571c.867 1.362 3.096.124 2.23-1.239-3.715-5.697-5.82-12.262-6.068-18.95 0-.992-.99-1.363-1.733-1.116 1.733-4.583 3.219-9.29 4.21-13.996 1.485-6.937 2.104-13.873 2.228-20.81 2.848-13.624 11.02-26.01 22.535-33.938 3.343-2.23 6.934-4.211 10.648-5.574 9.658 8.795 16.592 20.314 19.935 32.824 3.467 13.006 2.848 26.879-1.486 39.636-2.476 7.308-6.314 14.12-11.02 20.19-.99 1.239.743 3.097 1.734 1.734 8.791-11.024 14.239-24.649 15.353-38.769 1.115-13.873-2.105-27.87-8.915-40.008-3.714-6.565-8.667-12.634-14.362-17.836z" fill="#dbc5b2"/><path d="m329.108 400.766c1.486-.743.124-2.973-1.238-2.23l-23.773 13.006c1.114-9.414 2.476-18.827 4.21-28.117a456.433 456.433 0 0 1 3.714-17.836c.371-1.61-2.105-2.23-2.476-.62-2.23 9.786-4.21 19.57-5.696 29.48v-.124c-2.724-6.565-5.572-13.13-8.296-19.694-.619-1.487-2.848-.248-2.228 1.238 2.724 6.565 5.571 13.13 8.295 19.695.372.99 1.61.743 2.105 0a375.533 375.533 0 0 0 -3.714 33.319c-.124 1.115-.124 2.106-.248 3.22-5.696-5.697-10.524-12.386-14.239-19.57-.743-1.486-2.972-.124-2.229 1.239 4.086 7.927 9.41 14.987 15.849 21.18.124.124.248.248.495.248-.247 3.964-.371 7.803-.495 11.767 0 1.61 2.476 1.61 2.476 0 .248-10.776.99-21.676 2.105-32.452 8.42-4.583 16.963-9.166 25.383-13.75zm100.169-292.442c11.267 3.096 21.296 9.909 28.725 18.951 7.43 9.29 11.763 20.81 12.258 32.7a40.028 40.028 0 0 1 0 5.45c-.124 1.61 2.477 1.61 2.477 0 .619-12.758-2.972-25.516-10.153-36.044-6.934-10.033-16.84-17.837-28.355-22.048-11.886-4.335-25.135-4.707-37.145-.991-11.639 3.592-22.04 10.776-29.469 20.438-7.676 9.909-11.886 22.047-12.134 34.557 0 1.982 0 3.964.124 5.946.124 1.61 2.6 1.61 2.476 0-.99-12.386 2.105-24.897 8.915-35.301 6.315-9.785 15.725-17.465 26.497-21.676 11.515-4.583 24.145-5.203 35.784-1.982z" fill="#dbc5b2"/><path d="m450.45 165.177c-.124 1.61 2.476 1.61 2.476 0 1.114-17.093-9.287-33.319-25.507-39.264-16.096-5.946-34.421-.248-44.574 13.377-5.943 7.927-8.544 18.084-7.305 27.87.247 1.61 2.724 1.61 2.476 0-.99-8.3.743-16.722 5.076-23.783 3.963-6.44 10.154-11.643 17.211-14.616 14.858-6.069 32.193-1.486 42.222 11.024 5.82 7.184 8.543 16.226 7.924 25.392z" fill="#dbc5b2"/><path d="m423.21 140.528c-10.154-4.211-22.04-.619-28.355 8.3-3.838 5.325-5.076 12.014-3.838 18.455.247 1.61 2.724.867 2.476-.62-1.857-9.785 3.343-19.941 12.753-23.781 9.04-3.716 19.687-.62 25.26 7.432a21.657 21.657 0 0 1 3.466 16.474c-.371 1.61 2.105 2.229 2.477.619 2.104-11.148-3.715-22.543-14.24-26.879zm-213.215 57.473c15.106 2.973 30.335 5.946 45.441 8.918 1.61.372 2.229-2.105.62-2.477-15.106-2.973-30.336-5.945-45.442-8.918-1.61-.248-2.229 2.106-.619 2.477zm-1.485 9.166c12.753 1.734 25.258 4.955 37.392 9.538 1.486.619 2.229-1.858.62-2.478-12.011-4.583-24.64-7.68-37.394-9.537-1.61-.248-2.228 2.23-.619 2.477zm-2.849 8.175c12.01 2.106 23.65 5.45 34.917 10.157 1.486.62 2.105-1.858.62-2.477-11.268-4.707-22.907-8.052-34.917-10.157-1.486-.248-2.105 2.23-.62 2.477zm-4.705 7.803c6.439 1.61 12.877 3.22 19.316 4.707 1.61.372 2.229-2.105.62-2.477-6.44-1.61-12.878-3.22-19.317-4.707-1.61-.371-2.228 2.106-.619 2.477z" fill="#dbc5b2"/><path d="m255.189 84.542h80.729c1.61 0 1.61-2.477 0-2.477h-80.729c-1.734-.124-1.734 2.477 0 2.477zm0 9.909h80.729c1.61 0 1.61-2.477 0-2.477h-80.729c-1.734 0-1.734 2.477 0 2.477zm0 10.033h80.729c1.61 0 1.61-2.477 0-2.477h-80.729c-1.734-.124-1.734 2.477 0 2.477zm0 9.909h80.729c1.61 0 1.61-2.477 0-2.477h-80.729c-1.734 0-1.734 2.477 0 2.477zm0 10.033h35.783c1.61 0 1.61-2.477 0-2.477h-35.783c-1.734-.124-1.734 2.477 0 2.477zm78.871 72.708h66.862c1.61 0 1.61-2.477 0-2.477h-66.861c-1.61-.124-1.61 2.477 0 2.477zm77.882 0h13.496c1.61 0 1.61-2.477 0-2.477h-13.496c-1.61-.124-1.61 2.477 0 2.477zm28.231.867h49.65c1.61 0 1.61-2.477 0-2.477h-49.65c-1.61 0-1.61 2.477 0 2.477zm-71.567 13.377h-14.982c-1.61 0-1.61 2.478 0 2.478h68.1c1.61 0 1.61-2.478 0-2.478zm62.775 2.106h33.803c1.61 0 1.61-2.477 0-2.477h-33.804c-1.61-.124-1.61 2.477 0 2.477zm-322.545-123.616c1.981 1.982 4.953 3.097 7.677 2.601-.372 11.891-2.724 23.658-6.687 34.93-.495 1.486 1.858 2.23 2.477.62 3.467-9.662 5.695-19.819 6.438-30.1 1.61 5.822 4.334 11.396 8.296 16.103 5.324 6.317 12.877 10.28 21.297 10.776h.99a108.113 108.113 0 0 0 1.115 25.268c.247 1.61 2.724.867 2.476-.62-1.238-8.174-1.61-16.473-.99-24.648 6.686-.496 13.248-3.468 17.582-8.795 5.943-7.555 7.057-18.084 7.553-27.25.619-12.138-.743-24.4-3.963-36.168-.495-1.61-2.847-.867-2.476.62 2.724 9.66 4.086 19.694 4.086 29.85 0 5.08-.371 10.034-1.114 14.988-.62 4.335-1.61 8.67-3.591 12.51-3.59 7.06-10.277 11.272-18.077 11.767h-.62a1.057 1.057 0 0 0 -.866 0c-7.182.124-13.992-2.6-19.316-7.68-6.562-6.316-10.277-15.358-11.143-24.4-.124-.867-.991-1.61-1.858-1.115-2.476 1.61-5.572.743-7.429-1.239-1.857-1.981-3.095-4.83-3.467-7.555-.371-2.354 0-5.45 2.353-6.689 1.61-.867 3.962-.867 4.953.991.742 1.239 2.6.372 2.352-.991-.619-2.353-1.114-4.83-1.733-7.184-.372-1.61-2.848-.867-2.477.62.248 1.238.62 2.477.867 3.715-1.362-.371-2.972-.371-4.334.248-3.467 1.362-4.829 4.954-4.58 8.423 0 3.716 1.609 7.68 4.209 10.404zm48.908 151.238c.867 1.61 3.22.867 3.343-.867.124-1.115-.619-2.23-1.114-3.22-.62-1.24-1.115-2.478-1.734-3.593-2.352-4.83-4.581-9.537-6.934-14.368-4.58-9.661-9.286-19.199-13.867-28.86-.743-1.487-2.848-.124-2.229 1.238 3.962 8.052 7.8 16.226 11.763 24.278 1.98 3.963 3.838 8.05 5.82 12.014.99 1.982 1.857 3.964 2.847 5.946.495 1.115.99 2.106 1.486 3.22.248.496.495.867.619 1.363.124.248.248.62.495.867v.124c-.495.371-.866 1.115-.495 1.858zm152.42 85.589c-2.848-.123-5.572-.619-8.172-1.981-2.105-1.115-3.962-2.601-5.943-4.088-5.2-3.84-11.02-5.821-17.459-6.07-3.714-.247-7.553 0-11.267.125-4.21.124-8.296.124-12.506.124-8.172 0-16.344-.372-24.516-.868-16.344-.99-32.564-2.848-48.908-4.706-7.429-.867-15.106-1.487-22.04-4.583-5.819-2.478-11.267-5.822-16.343-9.414-11.887-8.299-22.04-19.57-26.993-33.32-.495-1.486-2.971-.866-2.476.62 4.457 12.386 12.877 22.791 23.03 30.966 4.953 3.964 10.4 7.556 16.096 10.528 2.972 1.61 6.068 3.097 9.287 4.212 3.59 1.115 7.305 1.858 11.02 2.353 8.048 1.115 16.096 1.858 24.02 2.725 8.42.867 16.84 1.734 25.135 2.354 16.592 1.238 33.183 1.734 49.775 1.238 3.962-.124 7.924-.124 11.763.62 3.095.619 6.067 1.858 8.79 3.592 4.21 2.725 7.801 6.193 12.878 7.308 1.486.371 3.095.495 4.581.495 1.857.248 1.857-2.23.248-2.23zm17.706 1.487c-6.686-3.097-13.125-6.813-19.316-10.9-1.362-.867-2.6 1.238-1.238 2.23 6.067 4.21 12.506 7.803 19.316 10.9 1.485.619 2.724-1.487 1.238-2.23zm14.486-1.487a176.68 176.68 0 0 1 -25.382-11.023c-1.486-.744-2.724 1.362-1.238 2.23 8.42 4.458 17.086 8.174 26.001 11.27 1.486.496 2.105-1.981.62-2.477zm7.924-.743c-7.18-3.84-14.61-8.05-20.553-13.749-1.362-1.362-2.724-2.848-3.838-4.459-.743-1.114-1.115-2.105-1.486-2.972-.62-1.734-.62-3.469-.248-5.327.372-1.362.867-2.6 2.229-3.344 1.114-.62 2.476-.743 3.838-.99 1.61-.248.867-2.726-.619-2.478-2.352.372-4.829.99-6.438 2.973-1.486 1.981-1.981 5.078-1.734 7.555.124 1.61.867 3.22 1.61 4.707 2.476 4.583 6.686 8.051 10.896 11.148 4.705 3.468 9.905 6.44 15.106 9.166 1.362.743 2.6-1.487 1.238-2.23zm-266.827 53.758c-7.305 17.34-10.524 36.415-9.534 55.118.248 5.327.99 10.653 1.858 15.855.247 1.61 2.724.867 2.476-.62-3.343-18.207-2.476-37.035 2.476-54.871 1.362-5.078 3.096-10.033 5.2-14.74.496-1.486-1.857-2.23-2.476-.743zm120.847 18.579c-.372-5.079-.743-10.033-1.115-15.112-.124-1.61-2.6-1.61-2.476 0 1.362 17.589 2.6 35.178 3.962 52.766.371 5.079.743 10.033 1.114 15.112.124 1.61 2.6 1.61 2.477 0-1.239-17.59-2.6-35.178-3.963-52.766zm-6.563 25.021a77.714 77.714 0 0 1 -8.296 31.584c-.743 1.487 1.486 2.725 2.23 1.239a79.873 79.873 0 0 0 8.666-32.824c0-1.61-2.6-1.61-2.6 0z" fill="#0e4d80"/><path d="m432.248 300.932c.248-.372.372-.867.248-1.239.124-.124.247-.371.247-.495 2.6-13.13 5.2-26.26 7.677-39.389.124-.743-.247-1.239-.867-1.486-.247-.867-1.362-1.487-2.104-.62-.124-.247-.372-.371-.743-.495-18.325-3.22-36.65-6.07-55.1-8.67-18.324-2.602-36.773-4.831-55.098-6.813a1327.923 1327.923 0 0 0 -31.202-2.973c-1.61-.124-1.61 2.354 0 2.478 18.325 1.61 36.65 3.468 54.975 5.697 18.449 2.23 36.774 4.707 55.099 7.556 10.153 1.61 20.182 3.22 30.335 4.954-7.429 7.68-14.982 15.483-22.411 23.163-.248.248-.248.372-.371.62-.124 0-.248-.125-.372-.125a4918.861 4918.861 0 0 1 -61.537-6.688c-20.43-2.354-40.86-4.955-61.29-7.68-10.896-1.486-21.668-2.972-32.564-4.459 11.02-7.68 21.915-15.483 32.935-23.162 1.362-.867 0-3.097-1.238-2.23-11.639 8.175-23.154 16.35-34.793 24.525-.619.372-.619.991-.495 1.61-.124.248-.124.62 0 .867 0 .124-.124.372-.124.496.495 7.927.372 15.73-.619 23.658v.371c-11.639-1.981-23.154-4.211-34.793-6.193a6717.548 6717.548 0 0 1 -20.677-3.716c-3.467-.619-6.81-1.238-10.277-1.858-2.972-.495-5.943-1.114-8.667-2.353-5.448-2.477-10.03-7.927-11.887-13.625-.99-2.973-1.61-6.07-2.353-9.042-.866-3.344-1.733-6.813-2.476-10.157-.371-1.61-2.848-.867-2.476.62 1.362 5.821 2.848 11.519 4.333 17.34 1.362 5.45 4.334 10.157 8.544 13.75 2.229 1.857 4.705 3.343 7.429 4.334 2.972.991 6.067 1.487 9.162 1.982 7.058 1.239 14.116 2.477 21.173 3.84 14.116 2.477 28.23 5.078 42.47 7.556 13.248 2.353 26.62 4.706 39.993 1.981 13.744-2.848 27.488-8.546 41.603-4.706 1.61.371 2.228-1.982.619-2.478-12.258-3.22-24.64.248-36.526 3.22-5.944 1.487-11.887 2.726-18.078 2.726-6.934 0-13.867-.867-20.677-2.106l-4.458-.743c.124-.248.372-.495.372-.743.866-7.804 1.114-15.607.619-23.41 19.934 2.848 39.87 5.45 59.804 8.05 20.553 2.602 41.231 5.08 61.785 7.309 11.143 1.238 22.287 2.353 33.43 3.592-.37.247-.495.495-.495.99.372 14.121-.866 28.118-3.59 41.99l-.124.124c-.372.496-.372.991-.124 1.363l-.743 3.344c-16.591-2.849-33.307-5.698-49.898-8.67-1.61-.248-2.23 2.105-.62 2.477 16.84 2.849 33.555 5.821 50.394 8.67.743.124 1.238-.371 1.486-.867.495 0 .99-.247 1.114-.867.372-1.486.62-2.972.991-4.459 7.677-9.537 15.353-19.199 23.03-28.736zm-19.192-14.245c0-.371-.123-.619-.371-.867.619 0 .99-.495.99-.99.372.123.867.123 1.239-.248l22.658-23.41c-2.476 12.386-4.829 24.772-7.305 37.283 0 .247 0 .495.124.743-6.686 8.422-13.372 16.845-20.182 25.268 2.228-12.386 3.219-25.02 2.847-37.778zm-257.416-44.343c-13.002 8.918-28.108 14.245-43.832 15.36-1.61.123-1.61 2.6 0 2.477 16.096-1.239 31.82-6.565 45.07-15.731 1.361-.867.123-3.097-1.239-2.106zm1.361-148.017c2.476.743 5.2.496 7.553-.743 2.476-1.239 2.6-3.592 1.733-5.945-2.105-5.822-4.457-11.52-6.686-17.341-.619-1.487-2.971-.867-2.476.619 1.733 4.583 3.467 9.042 5.2 13.625.372 1.115.867 2.23 1.238 3.22.372.868 1.115 2.23.372 3.097-.62.743-1.857.991-2.724 1.239a7.01 7.01 0 0 1 -3.59-.248c-1.487-.372-2.106 1.982-.62 2.477zm-19.191 6.937c7.924 4.583 17.83 5.326 26.249 1.734 1.485-.62.866-3.097-.62-2.478-7.8 3.345-16.962 2.85-24.268-1.486-1.486-.743-2.724 1.486-1.362 2.23zm-1.982-34.93c1.362-5.45 7.305-8.299 12.382-5.821 1.486.743 2.724-1.487 1.238-2.23-6.438-3.22-14.363.124-16.096 7.308-.372 1.61 2.105 2.353 2.476.743zm24.392-6.689c1.362-2.972 5.077-3.468 7.182-.99 1.114 1.238 2.848-.62 1.733-1.735-3.22-3.592-9.039-2.848-11.143 1.487-.62 1.486 1.61 2.725 2.228 1.238zm-10.153 11.025c0-2.23-1.238-3.964-2.724-3.964s-2.724 1.734-2.724 3.963c0 2.23 1.238 3.964 2.724 3.964s2.724-1.734 2.724-3.964zm15.601-6.442c-1.486 0-2.724 1.734-2.724 3.964s1.238 3.964 2.724 3.964 2.724-1.734 2.724-3.964-1.238-3.964-2.724-3.964zm-58.937 328.362c-4.953-.866-9.782-1.98-14.487-3.467-3.838-1.239-5.571 4.954-1.733 6.069 4.705 1.486 9.534 2.601 14.487 3.468 1.733.248 3.343-.495 3.838-2.23.495-1.486-.495-3.591-2.105-3.84zm31.202 3.47c-5.076.37-10.153-.125-15.106-1.363-3.962-.991-5.571 5.078-1.733 6.069 5.448 1.362 11.143 1.858 16.84 1.486 1.733-.124 3.095-1.362 3.095-3.096.123-1.61-1.362-3.22-3.096-3.097zm37.765-.744c-7.677.743-15.478 1.115-23.278.867-4.086-.124-4.086 6.193 0 6.317 7.8.124 15.477-.124 23.278-.867 1.733-.124 3.095-1.363 3.095-3.097 0-1.61-1.362-3.344-3.095-3.22zm23.402-1.858c-.372-1.61-2.23-2.725-3.84-2.23-3.466 1.239-6.81 2.478-10.276 3.592-1.61.62-2.724 2.106-2.229 3.84.372 1.61 2.229 2.725 3.839 2.23 3.466-1.239 6.81-2.477 10.276-3.592 1.61-.496 2.6-2.106 2.23-3.84z" fill="#0e4d80"/><path d="m91.873 216.457c-.99-4.583-1.61-9.29-1.981-13.873-.124-1.61-2.6-1.61-2.477 0 1.115 15.978 6.067 31.214 13.744 45.21 2.105 3.964 4.458 7.804 6.81 11.643.867 1.363 3.096.124 2.229-1.238-8.172-13.006-14.982-26.63-18.325-41.742zm567.457 85.961c-1.238-8.299-2.476-16.474-3.714-24.773-2.724-18.58-5.572-37.159-8.296-55.738-.248-1.61-2.724-.867-2.477.62 2.23 15.482 4.582 30.841 6.81 46.324 1.115 7.68 2.23 15.235 3.343 22.915 1.115 7.432 2.6 14.987 2.848 22.543.248 6.813-.743 13.625-4.086 19.57-2.971 5.327-7.305 9.662-12.01 13.626-2.353 1.981-4.829 3.84-7.305 5.821-2.6 1.982-5.324 4.212-8.544 5.202-6.19 1.982-10.029-3.592-14.486-6.688-2.724-1.858-5.696-2.477-8.915-2.973-3.096-.495-6.315-1.486-7.43-4.83-2.228-7.185 5.201-11.768 10.897-13.502.866-.248 1.238-1.486.495-2.105-.495-.496-1.114-.991-1.61-1.61 4.582-2.602 9.287-5.822 11.515-10.777 1.486-3.344 1.362-6.812.743-10.28-.743-3.84-1.857-7.556-2.971-11.396v-.124c0-.248 0-.371-.124-.62-1.981-7.555-4.086-14.987-6.067-22.542-1.981-7.184-3.715-14.616-7.306-21.305-3.343-6.565-8.295-13.006-8.172-20.685 0-1.61-2.476-1.61-2.476 0-.124 6.565 3.22 12.386 6.315 17.836 1.61 2.973 3.343 5.946 4.581 9.042 1.362 3.345 2.353 6.937 3.343 10.405 2.105 7.556 4.086 15.111 6.067 22.667.496 1.734.99 3.468 1.362 5.202-1.857 8.423-3.467 16.846-4.705 25.268-.247 1.61 2.229 2.23 2.477.62.99-6.937 2.352-13.873 3.714-20.686 0 .248.124.372.124.62.99 3.468 2.105 7.06 1.857 10.776-.495 7.184-7.305 11.148-12.877 14.368-.743.372-.867 1.486-.248 1.982.496.372.867.867 1.362 1.239-5.076 1.858-10.029 5.326-10.896 11.147-.247 1.982-.123 4.088.743 5.822a81.391 81.391 0 0 1 -19.687 27.374c-2.228 1.982-4.457 3.84-6.81 5.574-.743.619-1.61 1.238-2.352 1.734-.248-.496-.743-.867-1.486-.743-16.344 3.592-32.936-.62-48.289-6.318a240.848 240.848 0 0 1 -13.125-5.202c-.99-.371-1.485.372-1.485 1.239h-.248c.248-.124.371-.372.371-.743 2.724-16.35 5.448-32.7 6.067-49.174.372-8.3.124-16.474-.866-24.65-.99-8.05-2.848-15.977-5.2-23.78-2.23-7.68-4.582-15.36-5.201-23.287-.62-8.051.867-15.979 3.343-23.658 2.476-7.556 5.572-14.864 8.667-22.172 2.972-6.936 6.563-13.749 11.64-19.323 4.58-5.078 10.4-8.794 17.21-10.156 2.6-.496 5.324-.867 8.048-1.239 0 3.716 3.343 6.317 6.81 7.308 4.457 1.362 9.163 1.486 13.744.867 9.534-1.239 18.077-5.45 26.868-8.918 4.953-1.982 10.03-3.716 15.23-4.583 1.61-.248.867-2.725-.62-2.477-16.715 2.848-31.449 14.987-49.031 13.748-2.353-.123-4.705-.619-6.81-1.486-1.981-.867-4.21-2.601-3.838-4.954 2.352-.62 4.58-1.363 6.562-2.725a14.16 14.16 0 0 0 3.095-2.973c.124-.124.248-.372.248-.496.62 0 1.238-.371 1.238-1.238a200.228 200.228 0 0 0 -1.857-17.093c.248-.124.495-.248.743-.248 8.048-3.097 14.115-9.414 19.068-16.102.99-1.363-1.238-2.602-2.229-1.24-4.21 5.699-9.162 11.025-15.601 14.121-.99.496-1.981.867-2.972 1.239-.495-.248-1.114 0-1.485.495-5.2 1.363-10.896 1.115-15.478-1.486-6.19-3.592-9.41-10.652-11.515-17.093-2.6-7.432-3.962-15.235-4.705-23.039-.495-4.954-.743-9.909-.867-14.863.496.495 1.486.619 1.982-.248 1.485-2.477 4.952-2.725 6.562-.248.99 1.363 3.095 0 2.229-1.238-2.724-3.84-8.172-3.84-10.773 0-.123-3.469-.123-6.813-.123-10.281 0-1.61-2.477-1.61-2.477 0 .124 16.845.124 34.186 5.696 50.412 2.352 6.813 5.572 14.12 11.763 18.208 5.2 3.469 11.762 3.964 17.83 2.601a175.76 175.76 0 0 1 1.857 16.227c-.372 0-.743.123-1.115.495-3.714 4.83-10.896 5.078-16.344 5.946-6.686 1.114-12.505 3.84-17.582 8.298-5.448 4.831-9.41 11.148-12.63 17.589-3.466 7.06-6.438 14.368-9.162 21.676-2.848 7.432-5.076 15.112-5.695 23.039-.496 7.927.99 15.854 3.095 23.41 2.105 7.803 4.705 15.483 6.191 23.41 1.238 6.441 1.857 13.006 2.105 19.57a180.601 180.601 0 0 1 -36.526 3.345c-1.61 0-1.61 2.477 0 2.477 12.258.124 24.516-.99 36.526-3.344v2.601c0 5.326-.248 10.652-.62 15.855-5.2-.496-10.276-1.115-15.476-1.982s-10.401-1.734-15.601-.62c-9.906 2.106-15.23 11.891-24.516 14.988-4.086 1.363-9.534.867-12.258-2.973-.867-1.362-3.096-.124-2.23 1.239 1.61 2.477 4.21 3.964 7.059 4.583 0 0-.124 0-.124.124-7.058 3.716-14.363-1.734-19.811-5.822-1.238-.99-2.6 1.239-1.238 2.23 6.314 4.83 14.363 10.033 22.287 5.821.867-.495.743-1.486.124-1.982.743.124 1.485.124 2.105.124 4.828-.124 9.162-2.6 12.877-5.45 3.962-3.096 7.676-6.688 12.258-8.918 5.2-2.477 11.02-1.982 16.467-1.115 5.944.867 11.763 1.734 17.83 2.354-.99 10.528-2.476 20.933-4.21 31.461-.371 2.106-.743 4.088-.99 6.193-.124.867.495 1.487 1.238 1.61-.371.248-.495.496-.495.991a555.398 555.398 0 0 0 7.057 60.694c.99 5.697 2.105 11.519 3.22 17.217.371 1.61 2.724.867 2.476-.62a544.638 544.638 0 0 1 -8.915-60.073c-.495-5.698-.99-11.396-1.238-17.094 15.6 6.317 31.573 12.634 48.66 12.882 4.21 0 8.42-.248 12.506-1.115-.62.62-1.114 1.239-1.734 1.858-3.466 4.46-4.21 10.157-3.219 15.607 1.238 6.813 5.2 12.758 9.039 18.332.619.867 1.981.743 2.352-.248 7.058-20.437 27.736-30.966 44.327-42.857 3.962 18.828 3.467 38.522-1.362 57.102-1.362 5.326-3.219 10.652-5.2 15.73-.62 1.487 1.857 2.106 2.476.62 7.553-18.456 10.649-38.77 8.915-58.712-.495-5.574-1.362-11.024-2.476-16.474 5.076-3.84 9.781-7.927 13.867-12.634.248-.247.372-.62.372-.99 2.352-1.24 4.457-2.85 6.562-4.46 10.4-7.803 21.297-16.845 23.897-30.222 1.238-7.185.371-14.864-.743-22.42zm-84.072 99.339a49.95 49.95 0 0 0 -8.048 13.253c-2.848-4.335-5.696-8.794-6.934-13.873-1.362-5.202-.99-11.271 2.724-15.482 1.857-2.106 4.21-3.716 6.438-5.45a64.062 64.062 0 0 0 6.315-5.203c4.086-3.716 7.677-7.803 11.02-12.138a85.585 85.585 0 0 0 8.543-14.492c2.105 2.105 5.077 2.725 7.8 3.22 3.22.495 5.82 1.239 8.42 3.22 2.23 1.735 4.334 3.964 6.81 5.327 2.23 1.238 4.705 1.734 7.058 1.362-14.982 15.483-36.279 23.534-50.146 40.256z" fill="#0e4d80"/><path d="m431.381 346.885c-7.305 2.23-14.115-2.353-19.934-6.317-1.362-.867-2.6 1.239-1.238 2.23 6.314 4.335 13.867 9.042 21.792 6.565 1.61-.496.866-2.973-.62-2.478zm29.841-33.319c1.485.62 2.724-1.486 1.238-2.23-7.8-3.468-15.23 1.363-21.297 5.822-3.22 2.353-6.438 4.83-10.277 6.07-1.857.619-3.962.619-5.695 1.61-1.362.867-2.353 2.353-2.23 4.087.125 1.61 2.725 1.61 2.477 0-.124-1.858 1.981-2.353 3.467-2.725 1.61-.372 3.22-.743 4.705-1.363 3.22-1.362 5.943-3.468 8.667-5.45 5.448-3.715 12.258-8.794 18.945-5.821zm-24.888 19.57c.99-.371 1.857-.99 2.724-1.61s2.105-1.486 1.486-2.849c-.62-1.362-2.105-.99-3.22-.743-.618.124-1.237.372-1.857.496-.247 0-.619.123-.866.123h-.248c-1.61-.371-2.229 2.106-.619 2.478.371.124.867.124 1.362 0-.62.99 0 2.725 1.238 2.105zm78.006 84.228c-4.458-4.212-4.706-10.776-4.953-16.474-.248-7.804-.62-15.483-.867-23.287-.124-1.61-2.6-1.61-2.476 0 .371 8.175.619 16.35.99 24.525.248 6.07.99 12.635 5.572 16.97 1.114 1.114 2.848-.62 1.733-1.734zm1.857 3.22c-.248-1.61-2.724-.867-2.477.62 1.486 9.041 3.096 18.207 4.582 27.25.247 1.61 2.724.866 2.476-.62-1.486-9.042-2.972-18.084-4.581-27.25zm14.858-300.617c2.476.991 5.2.62 7.553-.495 1.486-.744.124-2.85-1.238-2.23a6.71 6.71 0 0 1 -3.096.743c-.743 0-2.229-.124-2.848-.743-.619-.62-.247-1.858-.124-2.601.248-1.115.496-2.354.62-3.468l2.6-13.378c.247-1.61-2.105-2.23-2.477-.619-1.114 5.822-2.476 11.767-3.467 17.713-.371 2.23.248 4.211 2.477 5.078zm4.829 7.308c-1.486-.743-2.724 1.486-1.238 2.23 2.971 1.486 6.314 1.981 9.534 1.114 3.343-.99 5.943-3.344 7.924-6.069.99-1.362-1.238-2.601-2.229-1.239-3.467 4.583-8.79 6.565-13.991 3.964zm3.962-41.247c4.457-3.344 10.4-1.734 12.63 3.345.618 1.486 2.847.247 2.228-1.239-2.724-6.193-10.772-8.299-16.096-4.211-1.362.867-.124 3.096 1.238 2.105zm4.457 13.502c1.362-.248 2.229-2.106 1.858-4.212-.372-2.105-1.734-3.592-3.22-3.344-1.362.248-2.228 2.106-1.857 4.211.372 2.106 1.734 3.592 3.22 3.345zm-15.601-3.592c-.371-2.106-1.733-3.593-3.219-3.345-1.362.248-2.229 2.106-1.857 4.212.371 2.105 1.733 3.592 3.219 3.344 1.362-.248 2.229-2.106 1.857-4.212zm-336.412 125.473c5.076-10.9 10.152-21.676 15.229-32.576.247-.495.124-1.115-.248-1.362.124.124.372.124.62.124 16.838.99 33.678 2.848 50.393 5.45 4.581.743 9.163 1.61 13.744 2.477a8926.053 8926.053 0 0 1 -30.212 42.237c-2.971 4.088-5.82 8.175-8.79 12.263-.125-.124-.372-.248-.496-.372-5.077-3.716-11.515-1.734-16.84.496-1.485.619-.866 3.096.62 2.477 4.086-1.61 8.915-3.468 13.248-1.61 1.734.743 3.22 2.105 3.715 3.963.247 1.115.247 2.23-.248 3.345-.619 0-1.362.371-1.486 1.238 0 .248 0 .496-.123.744-.124.247-.124.495-.124.743-1.486 7.68-8.172 13.377-16.097 13.5-1.61 0-1.61 2.602 0 2.478 9.287-.124 16.963-6.812 18.573-15.607 2.6-2.6 2.6-6.44.743-9.413.124-.124.248-.124.248-.248 10.4-14.616 20.925-29.232 31.326-43.848 2.971-4.211 6.067-8.423 9.038-12.634.867-1.115-.619-2.23-1.733-1.734-.124-.124-.248-.124-.495-.248a502.621 502.621 0 0 0 -50.89-7.06c-4.828-.372-9.657-.743-14.486-.99-1.238-.125-1.486 1.362-.867 2.105-.495-.372-1.362-.372-1.61.371-5.076 10.9-10.153 21.677-15.23 32.577-.37 1.362 1.858 2.6 2.477 1.114z" fill="#0e4d80"/><path d="m214.205 259.066c3.962-2.849 9.162-3.716 13.868-2.106 1.485.496 2.228-1.982.619-2.477-5.325-1.734-11.268-.867-15.725 2.353-1.362.991 0 3.097 1.238 2.23zm-2.972 5.698a29.652 29.652 0 0 1 11.144-3.716c1.61-.124 1.61-2.725 0-2.478-4.334.496-8.544 1.858-12.382 3.964-1.486.867-.248 2.973 1.238 2.23zm-2.971 5.202c3.59-.743 7.305-1.486 10.896-2.23 1.61-.371.866-2.725-.62-2.477-3.59.743-7.305 1.486-10.895 2.23-1.61.371-.991 2.725.619 2.477zm400.427-104.417c15.6 6.936 27.735 20.809 32.811 37.035 1.486 4.583 2.353 9.414 2.6 14.244.124 1.61 2.6 1.61 2.477 0-.867-17.712-9.906-34.681-23.897-45.705-3.962-3.097-8.172-5.698-12.753-7.68-1.362-.743-2.724 1.363-1.238 2.106zm-490.458-147.821c14.624-10.859 32.967-13.48 50.69-15.103 1.734-.124 1.239-2.745-.496-2.62-18.219 1.622-36.809 4.617-51.929 15.726-1.363.998.372 2.995 1.735 1.997z" fill="#0e4d80"/></g></g></svg>